# xmcd CD database file
#
# Track frame offsets:
#	150
#	11281
#	21353
#	31859
#	41617
#	56546
#	69491
#	81692
#	96209
#	107086
#	119959
#	130170
#	144372
#	155767
#	167924
#	177954
#	187760
#	198058
#	208428
#	220014
#
# Disc length: 3094 seconds
#
# Revision: 6
# Processed by: cddbd v1.5.2PL0 Copyright (c) Steve Scherf et al.
# Submitted via: CDex 1.70beta2
#
DISCID=200c1414
DTITLE=Various Artist - Ultimate Country Box Set Vol 4
DYEAR=1999
DGENRE=Country
TTITLE0=Roger Miller - King of the Road
TTITLE1=Don Gibson - Lonesome Number One
TTITLE2=George Hamilton IV - Abilene
TTITLE3=Dave Dudley - Six Days on the Road
TTITLE4=Merle Travis - Sixteen Tons
TTITLE5=Faron Young - It's Four in the Morning
TTITLE6=Johnny Paycheck - Take This Job And Shove It
TTITLE7=Loretta Lynn - Coal Miner's Daughter
TTITLE8=Tom Jones - Green Green Grass of Home
TTITLE9=Claude King - Wolverton Mountain
TTITLE10=Roger Miller - Engine Engine No.9
TTITLE11=B. J. Thomas - I'm So Lonesome I Could Cry
TTITLE12=Willis Brothers - All for the Love of a Girl
TTITLE13=Red Steagall - Truck Drivin' Man
TTITLE14=Hank Locklin - Please Help Me I'm Falling
TTITLE15=Denis Olson - Truck Drivin' Outlaw
TTITLE16=Warner Mack - The Bridge Washed Out
TTITLE17=Johnny Paycheck - A-11
TTITLE18=Al Hirt and Ace Cannon - Gotta Travel on
TTITLE19=Gene Autry - South of the Border Down Mexico Way
EXTD=YEAR: 1999
EXTT0=
EXTT1=
EXTT2=
EXTT3=
EXTT4=
EXTT5=
EXTT6=
EXTT7=
EXTT8=
EXTT9=
EXTT10=
EXTT11=
EXTT12=
EXTT13=
EXTT14=
EXTT15=
EXTT16=
EXTT17=
EXTT18=
EXTT19=
PLAYORDER=
